<?xml version="1.0" encoding="utf-8"?>
<!-- Generator: Adobe Illustrator 21.0.2, SVG Export Plug-In . SVG Version: 6.00 Build 0)  -->
<svg version="1.1" id="Layer_2_1_" xmlns="http://www.w3.org/2000/svg" xmlns:xlink="http://www.w3.org/1999/xlink" x="0px" y="0px"
	 viewBox="0 0 64 64" style="enable-background:new 0 0 64 64;" xml:space="preserve">
<g>
	<path d="M21.3,46.4c3.7,0,6.7-2.9,6.7-6.7c0-3.7-2.9-6.7-6.7-6.7s-6.7,2.9-6.7,6.7C14.7,43.5,17.6,46.4,21.3,46.4z M21.3,38.4
		c0.8,0,1.3,0.5,1.3,1.3S22.1,41,21.3,41S20,40.5,20,39.7S20.5,38.4,21.3,38.4z"/>
	<path d="M42.7,46.4c3.7,0,6.7-2.9,6.7-6.7c0-3.7-2.9-6.7-6.7-6.7C39,33,36,35.9,36,39.7C36.3,43.5,39.2,46.4,42.7,46.4z M42.7,38.4
		c0.8,0,1.3,0.5,1.3,1.3S43.5,41,42.7,41s-1.3-0.5-1.3-1.3C41.6,38.9,42.1,38.4,42.7,38.4z"/>
	<path d="M56.5,5.3H56l0,0C56,2.4,53.6,0,50.7,0H13.3C10.4,0,8,2.4,8,5.3l0,0H7.5c-1.1,0-2.1,0.8-2.1,1.9v4.5c0,0.8,1.1,1.6,2.1,1.6
		H8v36c0,2.1,1.9,4,4,4h1.3V56c0,4.5,3.5,8,8,8s8-3.5,8-8v-2.7h5.3V56c0,4.5,3.5,8,8,8s8-3.5,8-8v-2.7H52c2.1,0,4-1.9,4-4v-36h0.5
		c1.1,0,2.1-0.8,2.1-1.9V7.2C58.7,6.1,57.6,5.3,56.5,5.3z M13.3,16h16v10.7h-16C13.3,26.7,13.3,16,13.3,16z M24,56
		c0,1.6-1.1,2.7-2.7,2.7s-2.7-1.1-2.7-2.7v-2.7H24V56z M45.3,56c0,1.6-1.1,2.7-2.7,2.7c-1.6,0-2.7-1.1-2.7-2.7v-2.7h5.4L45.3,56z
		 M50.7,48h-16h-5.3h-16V32h37.3V48z M50.7,26.7h-16V16h16V26.7z M50.7,10.7H13.3V5.3h37.3v5.4H50.7z"/>
</g>
</svg>
