<?xml version="1.0" encoding="utf-8"?>
<!-- Generator: Adobe Illustrator 21.0.2, SVG Export Plug-In . SVG Version: 6.00 Build 0)  -->
<svg version="1.1" id="Layer_1" xmlns="http://www.w3.org/2000/svg" xmlns:xlink="http://www.w3.org/1999/xlink" x="0px" y="0px"
	 viewBox="0 0 64 64" style="enable-background:new 0 0 64 64;" xml:space="preserve">
<path d="M56.5,19.5L36,1.6c-2.4-2.1-5.9-2.1-8,0L7.5,19.5c-1.3,1.3-2.1,2.9-2.1,4.8v33.6c0,3.5,2.7,6.1,6.1,6.1h9.1
	c3.5,0,6.1-2.7,6.1-6.1V46.1c0-0.5,0.3-0.8,0.8-0.8h9.1c0.5,0,0.8,0.3,0.8,0.8v11.7c0,3.5,2.7,6.1,6.1,6.1h9.1
	c3.5,0,6.1-2.7,6.1-6.1V24.3C58.7,22.4,57.9,20.8,56.5,19.5z M53.3,57.9c0,0.5-0.3,0.8-0.8,0.8h-9.1c-0.5,0-0.8-0.3-0.8-0.8V46.1
	c0-3.5-2.7-6.1-6.1-6.1h-9.1c-3.5,0-6.1,2.7-6.1,6.1v11.7c0,0.5-0.3,0.8-0.8,0.8h-9.1c-0.5,0-0.8-0.3-0.8-0.8V24.3
	c0-0.3,0-0.5,0.3-0.5L31.5,5.9c0.3-0.3,0.8-0.3,1.1,0L53,23.8c0.3,0,0.3,0.3,0.3,0.5L53.3,57.9L53.3,57.9z"/>
</svg>
