<?xml version="1.0" encoding="utf-8"?>
<!-- Generator: Adobe Illustrator 23.0.0, SVG Export Plug-In . SVG Version: 6.00 Build 0)  -->
<svg version="1.1" id="Layer_2_1_" xmlns="http://www.w3.org/2000/svg" xmlns:xlink="http://www.w3.org/1999/xlink" x="0px" y="0px"
	 viewBox="0 0 64 64" style="enable-background:new 0 0 64 64;" xml:space="preserve">
<g>
	<path d="M48,16c0-8.8-7.2-16-16-16S16,7.2,16,16c0,8,5.9,14.4,13.3,15.7v29.6c0,1.6,1.1,2.7,2.7,2.7c1.6,0,2.7-1.1,2.7-2.7V31.7
		C42.1,30.4,48,24,48,16z M32,26.7L32,26.7L32,26.7c-5.9,0-10.7-4.8-10.7-10.7S26.1,5.3,32,5.3S42.7,10.1,42.7,16S37.9,26.7,32,26.7
		z"/>
	<path d="M34.7,10.7c-1.6,0-2.7,1.1-2.7,2.7s1.1,2.7,2.7,2.7c1.6,0,2.7-1.1,2.7-2.7S36.3,10.7,34.7,10.7z"/>
</g>
</svg>
