<?xml version="1.0" encoding="utf-8"?>
<!-- Generator: Adobe Illustrator 23.0.0, SVG Export Plug-In . SVG Version: 6.00 Build 0)  -->
<svg version="1.1" id="Layer_1" xmlns="http://www.w3.org/2000/svg" xmlns:xlink="http://www.w3.org/1999/xlink" x="0px" y="0px"
	 viewBox="0 0 64 64" style="enable-background:new 0 0 64 64;" xml:space="preserve">
<g>
	<g>
		<path d="M32.1,37.3c-8.8,0-16-7.2-16-16s7.2-16,16-16s16,7.2,16,16S40.9,37.3,32.1,37.3z M32.1,10.7c-5.9,0-10.7,4.8-10.7,10.7
			S26.3,32,32.1,32s10.7-4.8,10.7-10.7S38,10.7,32.1,10.7z"/>
	</g>
	<g>
		<path d="M2.8,58.7c-0.8,0-1.6-0.3-2.1-1.1c-1.1-1.1-0.8-2.9,0.3-3.7c8.8-7.2,19.7-11.2,31.2-11.2s22.4,4,30.9,11.2
			c1.1,1.1,1.3,2.7,0.3,3.7c-1.1,1.1-2.7,1.3-3.7,0.3C52.1,51.5,42.3,48,32.1,48s-20,3.5-27.7,10.1C4.1,58.4,3.3,58.7,2.8,58.7z"/>
	</g>
</g>
</svg>
